<svg width="10" height="10" viewBox="0 0 10 10" fill="none" xmlns="http://www.w3.org/2000/svg">
<path fill-rule="evenodd" clip-rule="evenodd" d="M0.116999 0.151983C0.274498 -0.00765688 0.53159 -0.00939201 0.691229 0.148107L9.94092 9.27379C10.1006 9.43129 10.1023 9.68838 9.9448 9.84802C9.7873 10.0077 9.53021 10.0094 9.37057 9.85189L0.120874 0.726213C-0.0387655 0.568714 -0.0405006 0.311622 0.116999 0.151983Z" fill="white"/>
<path fill-rule="evenodd" clip-rule="evenodd" d="M9.91197 0.11893C10.0705 0.277503 10.0705 0.5346 9.91197 0.693173L0.724075 9.88107C0.565502 10.0396 0.308404 10.0396 0.149831 9.88107C-0.00874175 9.7225 -0.00874159 9.4654 0.149831 9.30683L9.33773 0.11893C9.4963 -0.0396432 9.7534 -0.0396432 9.91197 0.11893Z" fill="white"/>
</svg>
