<svg width="40" height="40" viewBox="0 0 40 40" fill="none" xmlns="http://www.w3.org/2000/svg">
<path fill-rule="evenodd" clip-rule="evenodd" d="M39.4148 30.8754L33.3961 24.3833C32.9048 23.857 32.1086 23.857 31.6186 24.3833C31.1273 24.9083 31.1273 25.7611 31.6186 26.2862L35.6573 30.6422H28.1098L23.3948 24.3567C22.9023 23.8316 22.1036 23.8316 21.6111 24.3567C21.1186 24.8817 21.1186 25.7332 21.6111 26.2582L26.6036 32.9128C26.8511 33.1767 27.1748 33.3072 27.4986 33.3059H27.5011H35.6961L31.6186 37.7033C31.1273 38.2283 31.1273 39.0811 31.6186 39.6061C32.1098 40.1325 32.9061 40.1325 33.3973 39.6061L39.5336 32.9874C39.8111 32.7449 39.9998 32.3891 39.9998 31.9747C39.9998 31.5057 39.7586 31.1126 39.4148 30.8754Z" fill="black"/>
<path fill-rule="evenodd" clip-rule="evenodd" d="M1.25 9.32044H10.65L15.3525 15.5887C15.845 16.1137 16.6438 16.1137 17.1363 15.5887C17.6288 15.0636 17.6288 14.2122 17.1363 13.6871L12.1438 7.03249C11.8763 6.74866 11.5213 6.6314 11.1725 6.65538H1.25C0.56 6.65538 0 7.25236 0 7.98791C0 8.72347 0.56 9.32044 1.25 9.32044Z" fill="black"/>
<path fill-rule="evenodd" clip-rule="evenodd" d="M28.15 9.32137H35.7475L31.67 13.7187C31.1788 14.2437 31.1788 15.0965 31.67 15.6216C32.1613 16.1479 32.9575 16.1479 33.4488 15.6216L39.6238 8.96025C40.1325 8.41525 40.115 7.51179 39.57 6.99877L33.4488 0.394761C32.9575 -0.131587 32.1613 -0.131587 31.67 0.394761C31.1788 0.919778 31.1788 1.7726 31.67 2.29761L35.7088 6.65365H27.5C27.4938 6.65365 27.4888 6.65764 27.4825 6.65764C27.1288 6.62433 26.7938 6.74026 26.51 7.04274L10.5538 30.6418H1.25C0.560001 30.6418 0 31.2388 0 31.9743C0 32.7099 0.560001 33.3069 1.25 33.3069H11.25C11.595 33.3069 11.975 33.1416 12.2188 32.8805L28.15 9.32137Z" fill="black"/>
</svg>
