<?xml version="1.0" encoding="utf-8"?>
<!-- Generator: Adobe Illustrator 27.8.1, SVG Export Plug-In . SVG Version: 6.00 Build 0)  -->
<svg version="1.1" id="Layer_1" xmlns="http://www.w3.org/2000/svg" xmlns:xlink="http://www.w3.org/1999/xlink" x="0px" y="0px"
	 viewBox="0 0 30 30" style="enable-background:new 0 0 30 30;" xml:space="preserve">
<style type="text/css">
	.st0{fill:#1F1F1F;}
</style>
<g>
	<path class="st0" d="M27.8,29c-0.3,0-0.6-0.1-0.8-0.3L21.3,23l-0.2,0.2c-1.5,1.2-3.4,2.1-5.3,2.4c-0.8,0.2-1.6,0.2-2.4,0.2
		c-1.2,0-2.4-0.2-3.5-0.5c-1.9-0.6-3.6-1.6-5.1-2.9c-1.4-1.4-2.5-3.1-3.2-4.9c-0.6-1.9-0.8-3.9-0.6-5.8c0.3-2,1-3.8,2.2-5.4
		C4.4,4.6,6,3.3,7.7,2.4C9.5,1.5,11.4,1,13.4,1C15.8,1,18,1.7,20,2.9c2,1.2,3.6,3,4.6,5.1c1,2.1,1.4,4.4,1.2,6.8
		c-0.3,2.3-1.1,4.5-2.6,6.4L23,21.3l5.7,5.7c0.2,0.2,0.3,0.5,0.3,0.8c0,0.3-0.1,0.6-0.3,0.8C28.4,28.9,28.2,29,27.8,29L27.8,29z
		 M13.4,3.3c-2.7,0-5.2,1-7.1,3c-1.9,1.9-3,4.4-3,7.1c0,2.7,1,5.2,3,7.1c1.9,1.9,4.4,3,7.1,3s5.2-1.1,7.1-3c1.9-1.9,3-4.4,3-7.1
		c0-2.7-1-5.2-3-7.1C18.6,4.4,16.1,3.3,13.4,3.3z"/>
</g>
</svg>
